<svg version="1.1" xmlns="http://www.w3.org/2000/svg" xmlns:xlink="http://www.w3.org/1999/xlink" width="155.64526" height="786.39827" viewBox="0,0,155.64526,786.39827"><g transform="translate(-162.17737,213.19913)"><g data-paper-data="{&quot;isPaintingLayer&quot;:true}" stroke="none" stroke-width="1" stroke-linecap="butt" stroke-linejoin="miter" stroke-miterlimit="10" stroke-dasharray="" stroke-dashoffset="0" style="mix-blend-mode: normal"><g><path d="M254.79435,-90.3714l-9.425,-0.423l-15.855,-36.393c0,0 16.063,-5.252 17.861,-4.476c0.636,1.964 7.419,41.292 7.419,41.292z" fill="#3c3c32" fill-rule="evenodd"/><g fill-rule="evenodd"><path d="M262.98735,-65.3044c-1.462,0.411 -9.558,0.114 -9.558,0.114c0,0 -6.065,-19.535 -10.2,-28.355h12.536c0,0 3.614,25.216 4.626,27.168c0.872,0.082 1.738,0.208 2.596,0.377z" fill="#be0a3c"/><path d="M246.88935,-80.6894l-3.856,-9.254h14.536l1.382,9.254h-12.062" fill="#ffdc00"/><path d="M257.01435,-92.0894h-14.536l-1.654,-3.985h15.595l0.595,3.985" fill="#ffc800"/></g><path d="M206.78335,-91.0054c-3.868,0.291 -7.095,-0.81 -10.928,-1.267c0,-3.585 5.568,-31.741 5.568,-31.741l21.447,-3.18c0,0 -16.052,35.886 -16.087,36.188z" fill="#3c3c32" fill-rule="evenodd"/><g fill-rule="evenodd"><path d="M209.04435,-93.5744c0,0 -3.469,8.609 -5.204,12.839c-1.289,3.1 -5.21,15.089 -7.199,15.66c-1.162,-0.017 -8.864,0.553 -9.147,-0.36c0.129,-0.351 0.381,-0.645 0.711,-0.828c0.798,0.383 1.602,0.177 2.44,0c1.393,-4.584 2.602,-23.029 3.406,-27.282z" fill="#be0a3c"/><path d="M204.58635,-80.6894h-12.571l0.434,-9.254h15.988l-3.851,9.254" fill="#ffdc00"/><path d="M192.49535,-92.0894l0.596,-3.985h17.948l-1.654,3.985h-16.89" fill="#ffc800"/></g><path d="M246.97635,-134.3124c0.544,2.832 1.804,13.616 2.383,16.47l-48.45,-2.061c0.566,-2.843 1.335,-10.995 1.983,-13.821z" fill="#3c3c32" fill-rule="evenodd"/><path d="M200.61935,-125.6124c1.579,-6.793 3.823,-18.901 5.262,-25.724c0.677,-3.117 1.51,-6.182 2.313,-9.265c0.677,-2.58 0.966,-6.154 2.273,-8.506l30.738,-0.571c0.92,2.187 0.955,2.9 1.388,5.184c0.891,4.727 1.77,9.457 2.637,14.192c1.156,6.462 3.388,18.165 4.626,24.616z" fill="#ffdc00" fill-rule="evenodd"/><g fill-rule="evenodd"><path d="M198.52635,-128.8204h52.718v6.274h-52.718z" fill="#be0a3c"/><path d="M221.81235,-130.1334h7.517v8.472h-7.517z" fill="#ffc800"/><path d="M233.67135,-130.1334h3.759v8.472h-3.759z" fill="#3c3c32"/><path d="M242.66835,-130.1334h3.759v8.472h-3.759z" fill="#3c3c32"/><path d="M214.40435,-130.1334h3.759v8.472h-3.759z" fill="#3c3c32"/><path d="M203.39535,-130.1334h3.758v8.472h-3.758z" fill="#3c3c32"/></g><g fill-rule="evenodd"><path d="M226.39735,-213.1944c0.509,0.598 1.041,1.103 1.041,2.7c-1.191,0.299 -3.123,1.551 -4.198,0.402c-0.237,-2.734 2.33,-3.159 3.157,-3.102z" fill="#3c3c32"/><path d="M225.60535,-176.4544c-22.921,1.712 -22.921,-13.131 -22.921,-13.131l12.276,-8.637l31.646,5.252l1.596,6.976c0,0 0.324,7.827 -22.597,9.54z" fill="#e6781e"/><path d="M261.88335,-188.8374c-0.133,11.686 -24.65,10.584 -27.888,10.921c-0.44,-0.102 13.23,-1.341 12.611,-15.077c3.597,-0.239 15.346,-1.107 15.277,4.156z" fill="#fab414"/><path d="M200.67735,-184.2074c2.012,-3.414 3.788,-3.739 6.939,-0.673c0.52,2.785 2.66,7.01 2.382,9.762c-3.157,1.507 -12.16,-4.265 -9.321,-9.089z" fill="#824600"/><path d="M238.03735,-175.4444c-0.278,-2.751 0.393,-7.558 0.913,-10.344c3.152,-3.066 7.65,-3.374 8.402,1.256c0.908,5.514 -6.158,10.601 -9.315,9.088z" fill="#824600"/><path d="M242.22935,-178.9384c-1.671,7.393 -5.407,14.889 -5.407,14.889c0,0 -19.104,-0.405 -26.269,-0.211c-1.266,-2.261 -1.711,-5.327 -2.422,-7.798c-1.059,-3.666 -2.735,-17.823 -2.244,-19.913c2.452,-1.119 31.109,-3.134 37.643,-2.437c0.213,5.19 -0.224,10.386 -1.301,15.47z" fill="#a0640a"/><path d="M244.05035,-197.4404c0,0 0.631,1.37 0.382,6.354c-0.275,3.612 -0.867,7.193 -1.769,10.704l-23.708,-13.57z" fill="#000000"/><path d="M207.85935,-192.9584l16.138,-1.616l5.679,9.962l-21.817,-8.346" fill="#000000"/><path d="M227.77935,-182.9174c1.203,1.251 3.163,5.624 3.163,5.624l-11.958,0.062c0,0 2.7,-4.664 4.742,-5.748c2.046,-1.079 2.85,-1.188 4.053,0.062z" fill="#824600"/><path d="M202.68435,-189.6074c0.832,-4.59 1.96,-9.357 4.498,-13.353c3.129,-4.933 9.35,-7.433 14.896,-8.466c5.545,-1.034 11.738,-0.634 16.283,3.054c2.399,1.946 4.302,3.979 5.62,6.759c1.099,2.341 2.885,5.983 2.625,8.62z" fill="#ffdc00"/><path d="M220.80235,-180.0954c-0.089,0.525 -0.906,0.949 -1.963,1.018c-1.239,-0.474 -1.225,-1.162 -1.532,-1.85c0.599,-0.571 0.334,-1.382 2.242,-1.733c1.179,0.718 1.64,1.661 1.253,2.565z" fill="#000000"/><path d="M236.30835,-179.8134c-0.161,0.213 -0.924,0.316 -1.379,0.462c-1.996,-1.224 -2.158,-1.883 -0.852,-3.422l1.468,-0.161c1.425,0.883 1.721,2.093 0.763,3.121z" fill="#000000"/></g><g fill-rule="evenodd"><path d="M267.14535,-134.6714c-0.894,2.828 -2.891,5.188 -5.551,6.559c-2.683,1.467 -7.413,1.096 -10.2,0.223c-11.461,-3.603 -17.359,-14.929 -24.008,-23.909c1.093,-1.695 6.204,-5.064 7.135,-5.635c1.544,1.707 2.596,4.202 3.915,6.103c2.671,3.859 10.119,11.201 10.408,11.418c6.511,4.927 10.171,3.996 11.374,-1.861c1.174,-5.703 -8.379,-16.128 -8.379,-16.128l8.095,-1.084c0,0 11.108,10.921 7.211,24.314z" fill="#a0640a"/><path d="M263.50835,-156.4514c-2.602,0.891 -8.558,4.659 -8.558,4.659c-1.846,-2.744 -4.106,-5.193 -6.702,-7.262c-3.729,-2.917 -7.378,-2.98 -9.691,-3.425v-9.745c11.542,0.651 20.481,8.786 24.951,15.773z" fill="#ffdc00"/></g><g fill-rule="evenodd"><path d="M221.80035,-148.1504c0,0 -2.313,8.369 -5.782,12.354c-4.094,4.767 -9.72,10.144 -16.191,9.739c-5.522,-0.342 -15.103,-5.138 -16.08,-14.049c-0.978,-8.912 9.003,-18.091 11.316,-19.205c2.648,0.897 5.001,6.114 5.001,6.114c0,0 -5.724,3.683 -6.487,9.705c-0.764,6.023 5.377,8.929 8.552,7.799c12.056,-4.293 12.281,-14.906 12.281,-14.906z" fill="#a0640a"/><path d="M215.87935,-160.4524c-0.307,0.359 -6.187,1.124 -10.686,4.509c-3.307,2.484 -6.696,7.222 -6.892,7.422c-0.648,0.228 -8.737,-6.925 -8.969,-7.113c0.289,-0.365 0.597,-0.714 0.926,-1.045c1.509,-1.347 2.977,-2.7 4.579,-3.996c1.602,-1.296 7.87,-5.446 9.154,-6.348c0.445,-0.32 5.198,-3.329 5.834,-3.072z" fill="#ffdc00"/></g><g fill-rule="evenodd"><path d="M235.14635,-150.4284c-3.406,3.283 -12.93,6.651 -12.93,6.651c0,0 -7.453,-2.957 -10.171,-3.996c-2.018,-0.782 -4.256,-5.983 -4.764,-7.633c-1.538,-4.955 -2.284,-12.542 -0.55,-14.437c2.516,-2.729 5.343,-2.09 6.939,-3.197c1.758,-1.222 2.533,-3.14 3.805,-4.796c2.394,-3.117 5.464,-3.282 9.159,-3.02c7.887,0.571 13.762,7.713 14.635,15.197c0.335,2.872 -0.416,9.779 -6.123,15.231z" fill="#be0a3c"/><path d="M224.62835,-149.3374c0.746,1.33 -1.521,2.785 -1.521,2.785l-11.189,-3.425c0,0 -0.347,-2.466 0.538,-3.648c1.688,-0.011 10.94,3.597 12.172,4.288z" fill="#6e1e3c"/><path d="M210.19535,-161.7834c-3.626,-4.709 -1.145,-8.22 5.36,-10.087c6.505,-1.867 7.604,3.271 7.604,3.271c-0.92,4.299 -9.339,11.526 -12.964,6.816z" fill="#6e1e3c"/></g><g fill-rule="nonzero"><path d="M236.72753,10.85523c6.141,2.356 11.782,6.02 12.889,7.057c-0.189,2.07 -3.609,4.369 -5.055,5.596c-0.741,-1.106 -5.113,-5.871 -10.181,-8.778c-8.556,-4.913 -19.287,-8.456 -19.287,-8.926c1.257,-0.849 12.252,1.444 21.634,5.051z" fill="#a0640a"/><path d="M264.71553,27.18323l-8.465,15.859l-14.932,-21.495l5.641,-7.166l17.756,12.802" fill="#ffdc00"/></g><g fill-rule="nonzero"><path d="M221.18753,6.96223c-0.115,1.989 -12.349,12.292 -17.164,17.332c-1.94,2.035 -4.04,3.91 -5.871,6.048c-2.255,2.626 -3.655,5.837 -6.238,8.21c-2.111,0.029 -5.015,0.585 -6.886,-0.625c-0.453,-1.169 -1.125,-7.98 -0.149,-18.874c0.975,-10.893 5.52,-14.299 11.305,-17.664c3.68,-2.014 7.867,-2.917 12.051,-2.597c3.248,0.269 7.696,1.083 12.952,8.17z" fill="#be0a3c"/><path d="M183.17453,34.96923c-0.43,-1.398 -0.3,-2.909 0.362,-4.214h7.368c0.123,0.155 0.209,0.335 0.253,0.527c0.317,1.312 0.125,2.695 -0.54,3.87l-0.258,0.081h-6.8z" fill="#6e1e3c"/></g><g fill-rule="nonzero"><path d="M263.24653,102.27823c0.023,0.316 -0.385,2.38 -0.413,2.609c-0.104,0.946 -3.036,21.586 -3.145,22.159l-13.67,1.72c-0.011,-1.697 -0.82,-33.826 -0.746,-35.139z" fill="#000000"/><path d="M258.22453,165.89523l-7.098,0.258c0,0 -6.095,-37.387 -6.445,-47.105l17.015,0.321c-1.515,9.254 -6.375,44.159 -6.008,45.374c0.835,0.169 1.685,0.251 2.536,0.247z" fill="#be0a3c"/><path d="M244.66453,133.66323l-1.108,-9.294h18.599l-1.36,9.294h-16.131" fill="#ffdc00"/><path d="M262.60953,122.21323h-19.087l-0.562,-3.996h20.108l-0.459,3.996" fill="#ffc800"/></g><path d="M255.96353,36.87823l-18.271,65.687c-5.217,-5.504 -8.075,-12.023 -9.314,-19.023c-0.814,-4.938 -0.974,-9.962 -0.477,-14.941c0.706,-7.97 2.359,-15.01 6.772,-20.829c3.162,-4.169 7.896,-8.05 13.974,-9.61c0.665,-0.172 6.53,-1.1 7.316,-1.284z" fill="#ffdc00" fill-rule="nonzero"/><path d="M273.20853,43.85023c-0.976,9.059 -3.139,18.129 -4.729,27.101c-1.819,10.429 -3.408,20.904 -5.262,31.327c-6.049,4.484 -16.114,5.831 -22.955,2.494c-3.81,-1.863 -3.563,-4.701 -3.695,-8.548c-0.104,-4.319 0.128,-8.64 0.694,-12.923c1.096,-8.646 3.845,-16.879 5.899,-25.227c1.017,-3.756 2.397,-7.404 4.121,-10.893c0.855,-1.8 1.802,-3.56 2.657,-5.366c0.66,-1.405 6.926,-13.227 8.47,-14.592z" fill="#3c3c32" fill-rule="nonzero"/><g fill-rule="nonzero"><path d="M223.56353,75.72223c-4.143,-1.038 -8.137,-1.462 -12.235,-2.816c-5.629,-1.857 -13.537,-6.501 -17.514,-10.927c-4.247,-4.719 -5.658,-10.687 -6.806,-16.902c-0.522,-2.867 -0.367,-10.429 -0.367,-10.429h3.741c0,0 0.867,6.823 1.555,9.03c1.28,4.076 5.418,9.236 9.05,11.467c10.697,6.576 20.694,6.696 20.694,6.696c0,0 2.129,13.376 1.882,13.881z" fill="#a0640a"/><path d="M234.67353,60.27623c-0.453,5.682 -0.224,12.046 -0.677,17.722c-0.172,0.051 -11.925,-0.78 -15.368,-1.095v-16.467c2.668,-0.005 15.735,-0.189 16.045,-0.16z" fill="#ffdc00"/></g><g fill-rule="nonzero"><path d="M227.79853,0.13923c0.465,2.454 1.062,22.263 0.333,23.094c-2.273,-0.178 -6.84,-0.436 -8.809,-1.439c-0.132,-1.502 -2.112,-22.32 3.225,-26.907c3.656,-0.585 4.643,2.041 5.251,5.252z" fill="#fab414"/><path d="M207.16853,25.10223l11.678,-12.338c0,0 5.291,-0.619 8.126,1.869c2.835,2.488 3.317,8.084 3.5,17.452c0.155,7.729 -0.912,13.359 -3.345,16.117c-3.518,3.984 -8.861,3.067 -8.861,3.067z" fill="#e6781e"/><path d="M219.83953,46.87723c-4.712,-0.367 -6.594,-2.448 -6.789,-2.626c-0.603,-4.753 2.347,-21.173 2.628,-26.058c1.24,-1.576 9.061,-1.943 10.846,-1.817c2.565,0.178 7.076,1.141 9.182,2.643c4.625,3.291 5.911,7.763 6.146,13.353c0.407,9.775 -8.803,13.955 -22.013,14.505z" fill="#a0640a"/><path d="M223.78753,16.29623l-6.169,10.182l-2.078,-8.978c5.768,-1.875 8.247,-1.204 8.247,-1.204z" fill="#000000"/><path d="M216.68253,26.21423l5.027,-3.887l-3.822,13.267l-1.205,-9.38" fill="#000000"/><path d="M196.35353,30.07823c0.777,-0.464 1.453,-0.957 3.181,-0.865c0.025,1.187 0.914,3.165 -0.626,4.156c-3.018,0.069 -2.83,-2.476 -2.555,-3.291z" fill="#3c3c32"/><path d="M218.27253,51.29223c0,0 -11.758,-0.516 -15.885,-5.103c-1.75,-1.972 -5.595,-8.95 -5.164,-15.48c0.407,-6.169 4.981,-11.914 7.15,-13.462c3.81,-2.717 9.584,-4.019 14.473,-4.483c0.229,6.352 -0.574,38.528 -0.574,38.528z" fill="#ffdc00"/><path d="M214.79453,45.70223c-1.497,-2.42 -0.355,-6.106 2.479,-6.966c2.594,-0.786 8.247,0.952 11.059,1.089c-0.844,5.389 -9.308,12.717 -13.538,5.877z" fill="#a0640a"/><path d="M232.66753,18.80123c4.138,0.115 0.355,6.547 -1.291,2.867c0.026,-0.086 -1.62,-2.924 1.291,-2.867z" fill="#000000"/><path d="M227.59753,20.80223c-0.034,0.275 -0.126,0.545 -0.206,0.889c-1.303,0.493 -2.577,1.163 -4.017,0.539l-0.436,-1.302c1.061,-1.651 0.923,-1.468 3.139,-2.138c0.703,0.132 1.288,0.618 1.549,1.284c0.005,0.243 -0.005,0.486 -0.029,0.728z" fill="#824600"/><path d="M223.89053,30.53723l-0.769,-0.281c0.494,-1.318 0.947,-2.545 1.412,-3.767c0.056,-0.155 0.133,-0.302 0.229,-0.435c0.072,-0.15 0.201,-0.263 0.358,-0.314c0.158,-0.051 0.329,-0.035 0.474,0.044c0.924,1.095 1.131,2.655 2.365,3.538l0.034,0.688c-0.089,0.193 -0.262,0.335 -0.47,0.383c-0.208,0.049 -0.426,-0.002 -0.591,-0.137c-0.354,-1.05 -0.863,-2.041 -1.51,-2.941c-0.792,0.998 -0.883,2.207 -1.532,3.222z" fill="#000000"/></g><g fill-rule="nonzero"><path d="M281.07053,61.82423l-18.272,0.126c-0.402,-2.058 -3.816,-28.323 -4.39,-34.738c2.617,-3.274 6.37,-5.59 10.651,-4.237c3.076,0.986 5.084,3.681 6.64,6.307c4.085,6.908 5.044,14.155 5.945,22.004c0.316,3.522 0.123,7.071 -0.574,10.538z" fill="#3c3c32"/><path d="M282.26453,59.88023c-0.707,9.899 -1.929,19.755 -3.662,29.527c-1.641,8.967 -3.54,18.077 -4.751,27.107c1.48,0.144 3.276,-2.488 4.751,-1.869c0.08,0.387 -0.057,0.786 -0.356,1.044c-1.595,0.733 -7.064,3.915 -7.793,3.6c-1.21,-4.386 -1.348,-9.047 -1.951,-13.559c-0.665,-5.017 -5.865,-41.28 -6.438,-45.867z" fill="#be0a3c"/><path d="M262.83353,74.65523l-1.257,-9.294h21.02l-0.677,9.294h-19.086" fill="#ffdc00"/><path d="M283.10753,63.20623h-21.571l-0.626,-3.996h22.714l-0.517,3.996" fill="#ffc800" opacity="0.2"/></g><path d="M258.85384,315.84772c3.915,3.644 9.131,8.943 11.573,17.862c2.442,8.919 2.282,11.296 0.476,16.04c-4.597,0.492 -10.198,1.025 -14.703,-0.361c-0.912,-1.914 2.247,-6.966 -3.6,-16.361c-5.847,-9.395 -11.166,-10.89 -15.07,-13.336c0.115,-1.924 -4.116,-4.078 -3.439,-5.883c5.984,0.052 18.904,1.999 24.763,2.039z" fill="#000000" fill-rule="nonzero"/><g fill-rule="nonzero"><path d="M271.93484,348.52372c-1.25,3.477 -1.433,7.195 -2.757,10.683c-1.256,3.294 -12.806,20.199 -12.365,20.932c1.157,-0.099 2.32,-0.122 3.48,-0.069v1.209c-2.614,0.178 -7.395,0.252 -10.066,0.178c6.707,-21.975 5.589,-31.467 5.589,-31.467z" fill="#be0a3c"/><path d="M252.38184,363.01672l0.763,-9.292h18.583l-3.158,9.292h-16.188" fill="#ffdc00"/><path d="M272.18084,351.57672h-19.071l-0.556,-3.999h20.08l-0.453,3.999" fill="#ffc800"/></g><path d="M225.35484,333.73272c2.155,-9.235 0.607,-18.904 0.607,-18.904h20.883c0.574,5.641 0.394,11.333 -0.533,16.927c-2.843,17.455 -17.191,26.552 -20.556,27.125c-1.811,-1.535 -8.489,-7.201 -9.538,-9.555c4.597,-5.677 7.795,-9.888 9.137,-15.593z" fill="#3c3c32" fill-rule="nonzero"/><g fill-rule="nonzero"><path d="M227.36084,358.48572c-3.359,1.907 -15.076,5.264 -24.568,4.25c-11.029,-1.191 -19.742,-6.92 -19.742,-6.92l-0.172,3.26h-1.146c-0.058,-3.586 -0.172,-9.796 -0.172,-9.796c0,0 7.457,1.111 10.707,1.369c3.251,0.258 8.679,0.997 11.935,0.831c5.159,-0.264 10.541,-3.781 15.477,-7.035c0.493,0.871 7.48,13.594 7.681,14.041z" fill="#be0a3c"/><path d="M207.28084,349.32572l8.232,-4.497l7.881,16.441l-8.953,2.835l-7.16,-14.779" fill="#ffdc00"/><path d="M225.52684,360.73672l-8.341,-17.14l3.354,-2.251l8.787,18.045l-3.8,1.346" fill="#ffc800"/></g><g fill-rule="nonzero"><path d="M213.63784,216.55672c-0.304,0.664 -3.714,7.98 -4.098,8.547c-0.385,0.567 -6.008,-3.117 -6.833,-3.689c1.215,-0.98 9.767,-4.916 10.931,-4.858z" fill="#824600"/><path d="M209.08084,229.93772c0,0 -0.825,6.25 -9.172,5.866c-8.346,-0.383 -8.598,-8.019 -8.598,-8.019c-0.205,-3.736 2.157,-7.133 5.732,-8.244c2.591,-0.733 7.481,-0.429 9.917,1.667c3.336,2.887 2.121,8.73 2.121,8.73z" fill="#f0e6d2"/><path d="M267.01584,269.06972c-3.513,-0.722 -6.958,-1.461 -10.501,-1.937c-0.82,-0.108 -1.657,-0.171 -2.402,-0.326c1.984,-6.175 5.24,-16.733 5.24,-23.487c0,-6.198 -0.281,-11.692 -5.159,-16.12c-4.864,-4.441 -11.049,-7.17 -17.61,-7.768c-10.92,-0.979 -20.59,4.606 -25.697,9.298c-0.574,1.363 -1.646,5.379 -3.44,5.631c-2.837,-0.699 -3.938,-1.593 -4.236,-3.563c0.929,-0.212 2.855,1.128 3.273,0.79c1.869,-3.952 0.917,-8.438 3.589,-12.133c2.333,-3.236 5.961,-5.138 9.595,-6.553c21.834,-8.507 39.037,1.111 43.892,7.138c4.477,5.493 8.444,13.994 8.598,20.96c0.258,11.428 -3.554,25.343 -5.142,28.07z" fill="#a0640a"/><path d="M270.26084,264.15972c0,0 -14.898,48.463 -15.024,48.859l-10.123,-28.07c0.057,-0.441 6.299,-25.48 6.643,-25.927c3.824,0.516 18.504,5.138 18.504,5.138z" fill="#fab414"/><path d="M200.32184,236.06772c-0.322,0.544 -0.852,0.935 -1.467,1.083c-0.47,-0.357 -0.73,-0.924 -0.694,-1.513c0.086,-0.888 1.731,-7.498 3.846,-6.977c2.116,0.521 -0.951,6.433 -1.685,7.407z" fill="#a0640a"/><path d="M195.20884,235.44372c-1.502,1.351 -1.817,-1.541 -1.278,-2.916c0.504,-0.648 1.897,-5.545 3.84,-4.4c1.944,1.135 -1.06,5.964 -2.562,7.316z" fill="#a0640a"/><path d="M194.89384,226.70772c0.653,1.266 -1.462,4.227 -2.907,4.915c-0.819,-0.012 -1.478,-0.172 -1.65,-1.318c0.837,-1.718 3.903,-4.863 4.557,-3.597z" fill="#a0640a"/></g><g fill-rule="nonzero"><path d="M247.60684,248.77372l8.862,0.16l6.248,4.268l-4.54,5.671l-3.685,1.283l-6.885,-11.382" fill="#e6781e"/><path d="M249.14884,278.44672c-7.968,2.549 -13.132,1.719 -17.013,-0.315c-3.319,-1.736 -4.97,-5.299 -6.758,-8.386l-0.052,-0.413c0.017,-0.017 -4.07,-10.025 -4.07,-10.025l31.619,-12.843c2.482,4.342 4.586,8.226 5.085,13.382c0.418,4.302 -0.843,16.051 -8.811,18.6z" fill="#a0640a"/><path d="M244.58584,256.60972c1.491,-1.174 1.863,-0.315 2.672,1.289c0.808,1.604 0.94,3.116 -1.313,2.968c-2.253,-0.155 -2.545,-3.323 -1.359,-4.257z" fill="#824600"/><path d="M236.29184,253.65372l10.627,-2.079l3.847,7.304l-14.474,-5.225" fill="#000000"/><path d="M256.01084,251.64872c3.026,4.583 2.04,10.312 2.04,10.312c0,0 -13.918,-10.678 -14.038,-10.678c0,0 8.971,-4.216 11.998,0.366z" fill="#000000"/><path d="M220.20684,257.13172c-0.28,-5.128 2.103,-10.038 6.306,-12.993c5.663,-4.101 13.31,-5.505 19.994,-3.305c5.846,1.942 9.079,7.516 9.079,7.516c0,0 -5.371,2.28 -14.783,7.275c-5.761,3.059 -16.979,9.675 -17.856,9.973c-2.109,-1.443 -2.654,-6.261 -2.74,-8.466z" fill="#ffdc00"/><path d="M232.69784,240.77172c0.51,1.267 -0.344,1.684 -1.416,2.37c-1.072,0.686 -2.299,1.455 -2.436,-0.253c-0.138,-1.708 3.342,-3.384 3.852,-2.117z" fill="#3c3c32"/><path d="M251.05184,265.96472c3.164,2.068 2.499,5.052 -0.2,7.304c-2.7,2.251 -7.859,2.572 -10.851,0.658c-2.362,-1.512 -4.517,-6.249 -2.012,-8.541c3.089,-1.987 9.034,-2.062 13.063,0.579z" fill="#000000"/><path d="M253.48884,258.36272c0.968,0.486 1.631,1.248 1.835,2.109c-0.497,0.978 -0.497,0.978 -1.771,1.486l-1.822,-1.466c-0.038,-1.113 0.128,-1.937 1.758,-2.129z" fill="#000000"/><path d="M238.30884,262.51772c-0.824,-0.644 -1.265,-1.51 -1.225,-2.402c0.808,-0.889 0.808,-0.889 2.202,-1.191l1.393,1.767c-0.286,1.074 -0.69,1.865 -2.37,1.826z" fill="#000000"/><path d="M229.77984,272.32872c-2.809,0.218 -8.449,-1.684 -10.123,-4.583c-1.313,-2.257 -0.791,-5.298 2.293,-5.402c3.926,-0.527 6.408,3.094 6.408,3.094c0,0 1.829,5.362 1.422,6.891z" fill="#a0640a"/><path d="M260.38384,244.95872c9.189,-4.606 12.72,-2.383 13.408,0.435c0.631,2.589 0.109,4.583 -2.574,6.301c-2.986,1.965 -13.041,7.178 -13.041,7.178c0,0 5.022,-4.646 -0.498,-7.384c-4.024,-1.993 -16.893,4.136 -16.893,4.136c0,0 15.001,-8.369 19.598,-10.666z" fill="#fab414"/></g><g fill-rule="nonzero"><path d="M248.24884,303.75572l-13.413,-18.904c0,0 8.558,-0.619 10.971,0.527c0.247,0.492 2.322,9.95 2.322,9.95z" fill="#a0640a"/><path d="M255.09284,298.03872c3.812,8.661 7.55,21.768 7.55,21.768c0,0 -36.245,1.506 -36.394,1.547c0,0 -5.423,-16.47 -3.038,-25.469c2.384,-9 11.625,-11.033 11.625,-11.033l10.174,8.432l0.104,-8.335c0,0 7.509,7.459 9.979,13.09z" fill="#ffdc00"/></g><g fill-rule="nonzero"><path d="M223.89284,319.18772l38.927,-2.761l1.623,4.382l-39.214,2.67l-1.336,-4.291" fill="#be0a3c"/><path d="M245.12674,316.69292l5.2252,-0.2848l0.3249,5.9601l-5.2252,0.2848l-0.3249,-5.9601" fill="#ffc800"/><path d="M253.34794,316.26792l3.5917,-0.1958l0.3249,5.9602l-3.5917,0.1958l-0.3249,-5.9602" fill="#000000"/><path d="M238.01644,317.27472l3.5927,-0.1958l0.3248,5.9601l-3.5926,0.1958l-0.3249,-5.9601" fill="#3c3c32"/><path d="M229.06344,317.97202l3.5916,-0.1958l0.3249,5.9602l-3.5917,0.1958l-0.3248,-5.9602" fill="#3c3c32"/><path d="M258.63084,315.98562l3.5926,-0.1958l0.3249,5.9601l-3.5927,0.1958l-0.3248,-5.9601" fill="#000000"/></g><g fill-rule="nonzero"><path d="M284.99784,306.22472c-6.729,0.641 -56.347,3.838 -56.347,3.838l-2.551,-11.858c0,0 19.426,0.687 24.82,0.807c5.394,0.121 26.46,1.599 31.849,1.347c0.298,0.16 2.338,4.943 2.229,5.866z" fill="#a0640a"/><path d="M224.29984,313.50572c0,0 -1.657,-3.163 -2.109,-8.736c-0.453,-5.574 0.756,-8.29 0.756,-8.29h21.983l0.453,14.465z" fill="#fab414"/></g><g fill-rule="nonzero"><path d="M293.02384,318.62072c-4.443,-1.587 -11.602,-8.593 -11.602,-8.593c0,0 -0.539,-7.968 -0.78,-10.832c-0.178,-2.125 3.571,-6.41 4.838,-7.59c3.812,-3.535 10.347,-7.522 12.806,-6.806c3.542,1.031 4.19,3.827 5.881,4.766c1.863,1.031 3.938,0.882 5.979,1.289c3.829,0.796 5.325,3.437 6.695,6.874c2.923,7.27 -1.015,15.639 -7.395,19.695c-2.447,1.541 -9.016,3.912 -16.422,1.197z" fill="#be0a3c"/><path d="M287.47484,309.71872c-0.883,1.249 -3.176,-0.132 -3.176,-0.132l-1.72,-11.457c0,0 2.081,-1.392 3.531,-1.111c0.746,1.501 1.485,11.308 1.365,12.7z" fill="#6e1e3c"/><path d="M292.50184,291.42772c2.688,-5.299 6.942,-4.634 11.43,0.355c4.488,4.99 0.332,8.215 0.332,8.215c-4.264,1.06 -14.45,-3.271 -11.762,-8.57z" fill="#6e1e3c"/></g><path d="M217.70547,544.51449c-3.82,0.301 -7.662,0.227 -11.467,-0.223c0,-3.566 10.854,-37.28 10.854,-37.28l16.806,0.789c0,0 -16.124,36.411 -16.193,36.714z" fill="#3c3c32" fill-rule="nonzero"/><g fill-rule="nonzero"><path d="M206.34147,544.48549h12.815c-3.842,9.435 -11.56,28.086 -13.113,28.526c-1.153,-0.017 -8.791,0.554 -9.072,-0.36c0.128,-0.351 0.379,-0.646 0.706,-0.829c0.791,0.383 1.588,0.178 2.419,0c1.382,-4.588 5.448,-23.051 6.245,-27.337z" fill="#be0a3c"/><path d="M215.64147,557.38249h-14.186l2.151,-9.262h15.854l-3.819,9.262" fill="#ffdc00"/><path d="M203.65247,545.97149l0.59,-3.989h17.798l-1.64,3.989h-16.748" fill="#ffc800"/></g><path d="M284.62647,542.82249h-9.455c-0.757,-3.56 -3.83,-16.702 -14.151,-21.274c-5.843,-2.588 -26.113,-4.971 -32.684,-4.571l-0.304,-10.423c2.689,-0.017 27.529,0.028 31.766,0.24c2.151,0.108 7.426,1.686 9.392,2.663c1.6,0.794 3.085,2.314 4.284,3.611c3.971,4.405 7.025,9.552 8.985,15.143c0.602,1.029 2.144,9.303 2.167,14.611z" fill="#3c3c32" fill-rule="nonzero"/><g fill-rule="nonzero"><path d="M285.52147,544.55449c-0.275,5.096 -1.594,10.082 -3.876,14.651c-1.118,2.286 -2.151,4.612 -3.297,6.857c-0.924,1.795 -2.638,3.686 -3.039,5.669c1.295,0.857 2.93,-0.063 4.162,0.72l-0.498,0.731c-1.514,-0.057 -8.699,0.406 -9.696,-1.308c3.205,-8.549 6.473,-17.96 5.498,-27.297z" fill="#be0a3c"/><path d="M272.83747,557.32549l1.055,-9.268h12.965l-2.97,9.268h-11.05" fill="#ffdc00"/><path d="M286.28947,545.91449h-12.683l-1.073,-3.989h13.469l0.287,3.989" fill="#ffc800"/></g><g fill-rule="nonzero"><path d="M214.93647,499.10849c0,0 -10.786,12.469 -17.093,23.046c-6.657,11.177 -10.43,19.366 -11.244,20.954c-1.348,-0.177 -4.238,-3.503 -4.014,-4.674c3.664,-19.423 26.21,-46.566 26.21,-46.566z" fill="#824600"/><path d="M234.68447,483.89749c-3.338,3.16 -16.635,13.554 -21.113,19.16c-2.075,-1.549 -7.133,-5.892 -8.635,-8.086c1.319,-3.257 12.873,-13.817 16.227,-16.103c1.112,-0.76 3.893,-3.291 10.894,-5.097z" fill="#ffdc00"/></g><g fill-rule="nonzero"><path d="M190.59547,558.29749c-0.091,0.183 -1.353,1.891 -7.351,3.903c-5.997,2.011 -9.839,1.531 -9.839,1.531l-1.68,-17.554c0,0 18.05,-4.195 18.131,-3.343c0.046,0.52 0.625,15.006 0.739,15.463z" fill="#6e1e3c"/><path d="M190.03347,561.32049c-0.69,-0.011 -1.332,-0.356 -1.72,-0.926c-0.494,-1.594 -0.665,-3.271 -0.504,-4.932c0.246,-3.205 -1.032,-6.291 -3.441,-7.062c-5.642,1.142 -5.212,4.657 -6.554,9.714c-0.567,2.114 -0.43,5.926 -2.339,7.32c-1.789,1.308 -5.207,0.571 -7.007,-0.36c-10.55,-5.4 -5.929,-17.577 0.069,-24c5.998,-6.423 12.878,-7.594 12.878,-7.594c0,0 9.335,2.32 11.847,6.085c0.567,2.835 0.212,19.366 -3.229,21.755z" fill="#be0a3c"/><path d="M171.55947,536.94249c1.773,-1.147 3.679,-2.076 5.676,-2.765c2.54,0.925 5.321,1.685 7.615,3.154c0.172,0.36 0.332,0.686 0.447,0.931c0.155,1.143 -0.441,1.715 -1.147,2.286c-4.386,1.554 -9.191,-0.96 -12.591,-3.606z" fill="#6e1e3c"/></g><path d="M252.07547,475.88549c0.258,0.377 10.338,17.355 15.166,30.137c-13.234,0.183 -49.106,0.72 -49.404,0.72l14.335,-31.428z" fill="#ffdc00" fill-rule="nonzero"/><g fill-rule="nonzero"><path d="M272.08647,510.56049h-57.838l1.909,-6.28h52.277l3.652,6.28" fill="#be0a3c"/><path d="M239.24847,502.96549h7.454v8.48h-7.454v-8.48" fill="#ffc800"/><path d="M251.00847,502.96549h3.727v8.48h-3.727v-8.48" fill="#3c3c32"/><path d="M259.93047,502.96549h3.727v8.48h-3.727v-8.48" fill="#3c3c32"/><path d="M231.90347,502.96549h3.727v8.48h-3.727v-8.48" fill="#3c3c32"/><path d="M220.98547,502.96549h3.727v8.48h-3.727v-8.48" fill="#3c3c32"/></g><g fill-rule="nonzero"><path d="M189.55247,494.02249c0.608,1.572 1.221,3.138 1.823,4.709c0.086,0.223 1.932,4.44 2.053,4.971c-0.981,-0.822 -3.205,-2.131 -3.957,-2.857c-0.281,-1.097 -0.871,-5.554 -1.146,-6.697c-0.161,-0.395 -0.063,-0.848 0.246,-1.143c0.458,0.183 0.815,0.554 0.981,1.017z" fill="#824600"/><path d="M236.54147,525.33149c-3.182,0.63 -6.45,0.697 -9.656,0.2c-19.443,-2.646 -29.375,-9.189 -33.526,-11.789c-9.1,-5.697 -16.445,-15.92 -15.625,-18.457c0.82,-2.537 3.796,6.743 5.407,5.966c1.611,-0.777 -3.348,-8.263 -2.173,-9.274c1.175,-1.012 2.615,6.285 5.258,8.011c0.197,0.006 0.387,-0.068 0.528,-0.204c0.141,-0.137 0.219,-0.326 0.217,-0.522c-0.487,-1.28 -2.918,-6.605 -1.25,-7.508c1.153,1.451 1.675,3.366 2.747,4.88c1.445,2.051 3.549,3.651 5.459,5.257c3.199,2.691 6.192,5.377 9.776,7.566c4.668,2.857 15.47,7.314 28.991,6.068c3.726,-0.412 7.397,-1.218 10.952,-2.405l1.273,9.971c-2.749,0.902 -5.545,1.65 -8.378,2.24z" fill="#a0640a"/><path d="M243.58847,525.92549c-0.269,-0.348 -6.192,-10.16 -7.568,-12.92c3.383,-2.383 7.356,-3.863 10.487,-6.64c2.947,-2.583 4.908,-6.783 5.786,-10.583c0.516,-2.268 0.716,-4.72 1.089,-7.005c0.224,-1.355 0.361,-11.337 1.216,-12.452c0,0 12.236,4.44 11.863,13.68c-0.373,9.24 -0.728,10.537 -2.448,15.149c-3.32,8.891 -11.417,16.32 -19.719,20.491c-0.212,0.103 -0.442,0.177 -0.706,0.28z" fill="#fab414"/></g><g fill-rule="nonzero"><path d="M245.55847,443.87949l-0.25,1.015c-0.523,0.302 -1.062,0.513 -1.61,0.629c-0.448,0.004 -0.89,-0.19 -1.283,-0.563c-0.367,-0.367 -0.539,-1.121 -0.416,-1.821c0.282,-0.926 0.82,-0.948 1.372,-1.202c0.853,0.32 1.738,0.265 2.187,1.942z" fill="#c8bea0"/><path d="M244.97047,474.91449c-20.693,1.537 -20.693,-12 -20.693,-12l11.083,-7.874l28.572,4.788l1.445,6.36c0,0 0.287,7.189 -20.407,8.726z" fill="#e6781e"/><path d="M277.72847,463.59449c-0.143,10.651 -22.253,9.646 -25.177,9.948c-0.402,-0.068 11.955,-1.2 11.381,-13.714c3.252,-0.223 13.859,-0.994 13.796,3.766z" fill="#fab414"/><path d="M222.47047,467.83449c1.812,-3.109 3.395,-3.412 6.262,-0.617c0.47,2.543 2.402,6.388 2.156,8.897c-2.856,1.377 -10.981,-3.886 -8.418,-8.28z" fill="#824600"/><path d="M257.80347,474.44049c-0.247,-2.509 0.361,-6.892 0.831,-9.429c2.839,-2.794 6.881,-3.08 7.581,1.143c0.762,5.023 -5.585,9.657 -8.412,8.286z" fill="#824600"/><path d="M259.98247,472.64049c-1.508,6.731 -3.515,14.137 -14.857,14.788c-11.342,0.652 -15.287,-6.268 -15.929,-8.52c-0.952,-3.343 -2.465,-16.246 -2.03,-18.148c2.214,-1.018 28.097,-2.852 33.991,-2.223c0.195,4.731 -0.2,9.468 -1.175,14.103z" fill="#a0640a"/><path d="M244.59847,467.80049l1.227,0.462c0.347,0.624 0.387,1.372 0.109,2.029c-0.121,0.371 -0.276,0.754 -0.396,1.143c-0.413,1.348 -1.227,1.846 -2.643,1.628c-0.549,-0.013 -1.02,-0.393 -1.147,-0.925c0.139,-1.333 0.528,-2.628 1.147,-3.817c0.487,-0.371 1.091,-0.555 1.703,-0.52z" fill="#824600"/><path d="M243.19347,479.40949c0.206,0.498 0.114,0.845 -0.367,1.068c-0.734,-0.288 -1.52,-0.584 -2.294,-0.916c-0.883,-0.383 -1.76,-0.794 -2.632,-1.22c-0.198,-0.117 -0.376,-0.284 -0.521,-0.49c-0.069,-0.08 -0.064,-0.253 -0.109,-0.469l0.625,-0.491c1.559,1.602 3.406,2.158 5.298,2.518z" fill="#000000"/><path d="M237.30847,469.51749c0.074,-0.235 0.356,-0.444 0.776,-0.573c0.419,-0.129 0.935,-0.166 1.416,-0.101c0.859,0.479 1.077,1.149 0.561,1.73c-0.374,0.642 -0.334,1.411 -2.178,1.825c-1.751,-0.973 -1.109,-1.94 -0.575,-2.881z" fill="#000000"/><path d="M254.95247,471.52149c-0.127,0.671 -1.076,1.221 -2.341,1.356c-0.904,-0.31 -1.207,-0.929 -0.699,-1.428c0.456,-0.738 0.334,-1.65 2.112,-2.158c1.748,0.69 1.231,1.492 0.928,2.23z" fill="#000000"/><path d="M261.62747,455.77749c0,0 0.568,1.245 0.344,5.788c-0.247,3.291 -0.781,6.555 -1.594,9.755l-21.404,-12.366z" fill="#000000"/><path d="M228.95047,459.86249l14.575,-1.474l5.121,9.074l-19.696,-7.6" fill="#000000"/><path d="M224.27747,462.91449c0.751,-4.172 1.771,-8.532 4.065,-12.172c2.821,-4.491 8.44,-6.771 13.446,-7.714c5.006,-0.943 10.596,-0.577 14.702,2.783c2.145,1.636 3.882,3.744 5.074,6.16c0.992,2.143 2.604,5.451 2.368,7.857z" fill="#ffdc00"/></g></g></g></g></svg>